name Walk3.mot
datacolumns 19
datarows 17
range 1.92100000 1.93700000
endheader

                time	   L_ground_force_vx	   L_ground_force_vy	   L_ground_force_vz	   L_ground_force_px	   L_ground_force_py	   L_ground_force_pz	   R_ground_force_vx	   R_ground_force_vy	   R_ground_force_vz	   R_ground_force_px	   R_ground_force_py	   R_ground_force_pz	   L_ground_torque_x	   L_ground_torque_y	   L_ground_torque_z	   R_ground_torque_x	   R_ground_torque_y	   R_ground_torque_z	
          1.92100000	          0.00000000	          0.00000000	          0.00000000	          0.00000000	          0.00000000	          0.00000000	         13.28210183	        664.21491070	        -18.78581126	         -0.12075082	          0.00000000	          0.34641307	          0.00000000	          0.00000000	          0.00000000	          0.00000000	          2.02560127	          0.00000000	
          1.92200000	          0.00000000	          0.00000000	          0.00000000	          0.00000000	          0.00000000	          0.00000000	         13.76234212	        666.54767450	        -18.95832149	         -0.12038176	          0.00000000	          0.34641300	          0.00000000	          0.00000000	          0.00000000	          0.00000000	          1.97288581	          0.00000000	
          1.92300000	          0.00000000	          0.00000000	          0.00000000	          0.00000000	          0.00000000	          0.00000000	         14.24770430	        668.83648414	        -19.12812163	         -0.12001289	          0.00000000	          0.34640441	          0.00000000	          0.00000000	          0.00000000	          0.00000000	          1.94212697	          0.00000000	
          1.92400000	          0.00000000	          0.00000000	          0.00000000	          0.00000000	          0.00000000	          0.00000000	         14.74311443	        671.14503415	        -19.28983477	         -0.11966516	          0.00000000	          0.34638298	          0.00000000	          0.00000000	          0.00000000	          0.00000000	          1.93341457	          0.00000000	
          1.92500000	          0.00000000	          0.00000000	          0.00000000	          0.00000000	          0.00000000	          0.00000000	         15.26058438	        673.52306384	        -19.45063032	         -0.11935204	          0.00000000	          0.34636528	          0.00000000	          0.00000000	          0.00000000	          0.00000000	          1.93394116	          0.00000000	
          1.92600000	          0.00000000	          0.00000000	          0.00000000	          0.00000000	          0.00000000	          0.00000000	         15.80059639	        675.97043317	        -19.62080622	         -0.11906860	          0.00000000	          0.34636748	          0.00000000	          0.00000000	          0.00000000	          0.00000000	          1.93147459	          0.00000000	
          1.92700000	          0.00000000	          0.00000000	          0.00000000	          0.00000000	          0.00000000	          0.00000000	         16.34829457	        678.46393226	        -19.80380846	         -0.11879527	          0.00000000	          0.34637925	          0.00000000	          0.00000000	          0.00000000	          0.00000000	          1.92169324	          0.00000000	
          1.92800000	          0.00000000	          0.00000000	          0.00000000	          0.00000000	          0.00000000	          0.00000000	         16.89153430	        680.98783684	        -19.99910449	         -0.11851574	          0.00000000	          0.34637307	          0.00000000	          0.00000000	          0.00000000	          0.00000000	          1.90367049	          0.00000000	
          1.92900000	          0.00000000	          0.00000000	          0.00000000	          0.00000000	          0.00000000	          0.00000000	         17.42872343	        683.51819436	        -20.20807896	         -0.11822154	          0.00000000	          0.34632859	          0.00000000	          0.00000000	          0.00000000	          0.00000000	          1.87692086	          0.00000000	
          1.93000000	          0.00000000	          0.00000000	          0.00000000	          0.00000000	          0.00000000	          0.00000000	         17.96337190	        686.01728844	        -20.43938623	         -0.11790640	          0.00000000	          0.34624024	          0.00000000	          0.00000000	          0.00000000	          0.00000000	          1.84053911	          0.00000000	
          1.93100000	          0.00000000	          0.00000000	          0.00000000	          0.00000000	          0.00000000	          0.00000000	         18.50515217	        688.47523694	        -20.71394075	         -0.11757489	          0.00000000	          0.34611722	          0.00000000	          0.00000000	          0.00000000	          0.00000000	          1.78928140	          0.00000000	
          1.93200000	          0.00000000	          0.00000000	          0.00000000	          0.00000000	          0.00000000	          0.00000000	         19.06995756	        690.92589153	        -21.06219643	         -0.11725112	          0.00000000	          0.34598188	          0.00000000	          0.00000000	          0.00000000	          0.00000000	          1.71553258	          0.00000000	
          1.93300000	          0.00000000	          0.00000000	          0.00000000	          0.00000000	          0.00000000	          0.00000000	         19.66954052	        693.39293590	        -21.51206081	         -0.11696111	          0.00000000	          0.34586884	          0.00000000	          0.00000000	          0.00000000	          0.00000000	          1.61840081	          0.00000000	
          1.93400000	          0.00000000	          0.00000000	          0.00000000	          0.00000000	          0.00000000	          0.00000000	         20.30289550	        695.85123903	        -22.08152748	         -0.11670604	          0.00000000	          0.34581472	          0.00000000	          0.00000000	          0.00000000	          0.00000000	          1.50591167	          0.00000000	
          1.93500000	          0.00000000	          0.00000000	          0.00000000	          0.00000000	          0.00000000	          0.00000000	         20.95895401	        698.26369516	        -22.77623978	         -0.11646538	          0.00000000	          0.34583305	          0.00000000	          0.00000000	          0.00000000	          0.00000000	          1.38928865	          0.00000000	
          1.93600000	          0.00000000	          0.00000000	          0.00000000	          0.00000000	          0.00000000	          0.00000000	         21.63007824	        700.62414558	        -23.57018972	         -0.11622179	          0.00000000	          0.34590405	          0.00000000	          0.00000000	          0.00000000	          0.00000000	          1.27946283	          0.00000000	
          1.93700000	          0.00000000	          0.00000000	          0.00000000	          0.00000000	          0.00000000	          0.00000000	         22.32487491	        702.95075810	        -24.39044233	         -0.11596970	          0.00000000	          0.34599606	          0.00000000	          0.00000000	          0.00000000	          0.00000000	          1.18484967	          0.00000000	
